<?xml version="1.0" encoding="UTF-8" standalone="no"?>
<!DOCTYPE svg PUBLIC "-//W3C//DTD SVG 1.1//EN" "http://www.w3.org/Graphics/SVG/1.1/DTD/svg11.dtd">
<svg width="100%" height="100%" viewBox="0 0 100 160" version="1.1" xmlns="http://www.w3.org/2000/svg" xmlns:xlink="http://www.w3.org/1999/xlink" xml:space="preserve" xmlns:serif="http://www.serif.com/" style="fill-rule:evenodd;clip-rule:evenodd;stroke-linecap:round;stroke-linejoin:round;stroke-miterlimit:1.5;">
    <g transform="matrix(0.331276,0,0,0.331276,-65.0749,-13.9854)">
        <path d="M265.728,364.498L348.127,283.365" style="fill:none;stroke:rgb(94,156,195);stroke-width:8.05px;"/>
    </g>
    <g transform="matrix(0.331276,0,0,0.331276,-65.0749,-13.9854)">
        <path d="M400,375.018L348.127,283.365" style="fill:none;stroke:rgb(94,156,195);stroke-width:8.05px;"/>
    </g>
    <g transform="matrix(0.265391,-0.020549,-0.020549,0.324867,-36.3156,-5.01564)">
        <path d="M443.011,312.959L348.127,283.365" style="fill:none;stroke:rgb(94,156,195);stroke-width:9.66px;"/>
    </g>
    <g transform="matrix(0.306249,0.0286712,0.0286712,0.298431,-64.4865,-14.6595)">
        <path d="M422.304,198.389L348.127,283.365" style="fill:none;stroke:rgb(94,156,195);stroke-width:8.06px;"/>
    </g>
    <g transform="matrix(0.31615,-0.0215013,-0.0215013,0.300714,-53.7162,2.16003)">
        <path d="M292.559,204.381L348.127,283.365" style="fill:none;stroke:rgb(94,156,195);stroke-width:9.29px;"/>
    </g>
    <g transform="matrix(0.425916,0,0,0.425916,-108.335,-43.6955)">
        <circle cx="372.34" cy="290.156" r="27.66" style="fill:white;stroke:rgb(94,156,195);stroke-width:6.26px;"/>
    </g>
    <g transform="matrix(0.331276,0,0,0.331276,-56.3012,-8.50391)">
        <circle cx="274.066" cy="198.728" r="16.312" style="fill:white;stroke:rgb(94,156,195);stroke-width:8.05px;"/>
    </g>
    <g transform="matrix(0.544922,0,0,0.544922,-126.39,-1.52684)">
        <circle cx="274.066" cy="198.728" r="16.312" style="fill:white;stroke:rgb(94,156,195);stroke-width:4.89px;"/>
    </g>
    <g transform="matrix(0.331276,0,0,0.331276,-23.3561,44.4154)">
        <circle cx="274.066" cy="198.728" r="16.312" style="fill:white;stroke:rgb(94,156,195);stroke-width:8.05px;"/>
    </g>
    <g transform="matrix(0.263179,0,0,0.263179,2.69614,35.0737)">
        <circle cx="274.066" cy="198.728" r="16.312" style="fill:white;stroke:rgb(94,156,195);stroke-width:10.13px;"/>
    </g>
    <g transform="matrix(0.452983,0,0,0.452983,-53.6158,-33.3666)">
        <circle cx="274.066" cy="198.728" r="16.312" style="fill:white;stroke:rgb(94,156,195);stroke-width:5.89px;"/>
    </g>
</svg>
